<svg width="185" height="60" viewBox="0 0 188 54" fill="none" xmlns="http://www.w3.org/2000/svg">
<path d="M24.6725 24.7069H23.5563C23.0939 24.7069 22.719 25.0818 22.719 25.5442C22.719 26.0066 23.0939 26.3815 23.5563 26.3815H24.6725C25.135 26.3815 25.5098 26.0066 25.5098 25.5442C25.5098 25.0818 25.135 24.7069 24.6725 24.7069Z" fill="black"/>
<path d="M31.2822 31.2991H29.8425V29.3429C29.8425 28.8672 29.5212 28.4814 29.1248 28.4814H26.5528L24.1932 26.269L27.368 22.458C27.7265 22.7624 28.1476 22.9152 28.569 22.9152C29.102 22.9152 29.635 22.6718 30.0407 22.1848L30.6902 21.4053C30.8248 21.2438 30.9004 21.0246 30.9004 20.7962C30.9004 20.5678 30.8248 20.3487 30.6902 20.1871L28.245 17.2523C28.1104 17.0908 27.9278 17 27.7375 17C27.7374 17 27.7374 17 27.7373 17C27.5468 17.0001 27.3642 17.0909 27.2297 17.2527L26.5811 18.0319C25.8545 18.904 25.7791 20.2657 26.3533 21.2395L23.0536 25.2004L22.5254 24.7051C19.2722 21.6543 14.7279 21.6543 11.4747 24.7051L7.4464 28.4815H4.87437C4.47798 28.4815 4.15666 28.8672 4.15666 29.3429V31.2991H2.71771C2.32133 31.2991 2 31.6848 2 32.1605C2 32.6362 2.32133 33.0219 2.71771 33.0219H4.15671V38.1386C4.15671 38.6143 4.47804 39 4.87443 39H29.1249C29.5213 39 29.8426 38.6143 29.8426 38.1386V33.0219H31.2823C31.6787 33.0219 32 32.6362 32 32.1605C32 31.6848 31.6786 31.2991 31.2822 31.2991ZM27.5965 19.2496L27.7378 19.0798L29.1678 20.7961L29.0257 20.9666C28.7739 21.2689 28.3641 21.2689 28.1123 20.9666L27.5963 20.3464C27.3443 20.0441 27.3443 19.5522 27.5965 19.2496ZM12.3584 26.0627C15.0913 23.5 18.9087 23.4998 21.6416 26.0627L24.2212 28.4815H9.77825L12.3584 26.0627ZM5.59208 37.2772V33.0219H19.9181C20.3145 33.0219 20.6358 32.6362 20.6358 32.1605C20.6358 31.6848 20.3145 31.2991 19.9181 31.2991H5.59208V30.2043H7.69354H26.3057H28.4072V31.2991H25.6361C25.2397 31.2991 24.9184 31.6848 24.9184 32.1605C24.9184 32.6362 25.2397 33.0219 25.6361 33.0219H28.4072V37.2772H5.59208V37.2772Z" fill="black"/>
<path d="M47.712 39.54C46.512 39.54 45.24 39.384 43.896 39.072C42.552 38.784 41.496 38.388 40.728 37.884V34.788C41.664 35.34 42.744 35.796 43.968 36.156C45.192 36.492 46.38 36.66 47.532 36.66C48.828 36.66 49.776 36.504 50.376 36.192C50.976 35.88 51.276 35.376 51.276 34.68C51.276 34.152 51.132 33.732 50.844 33.42C50.58 33.084 50.112 32.784 49.44 32.52C48.792 32.256 47.808 31.944 46.488 31.584C45.072 31.176 43.944 30.768 43.104 30.36C42.288 29.928 41.664 29.388 41.232 28.74C40.824 28.092 40.62 27.252 40.62 26.22C40.62 24.564 41.268 23.316 42.564 22.476C43.884 21.612 45.648 21.18 47.856 21.18C49.008 21.18 50.136 21.288 51.24 21.504C52.344 21.72 53.232 22.02 53.904 22.404V25.428C53.208 25.02 52.344 24.696 51.312 24.456C50.304 24.216 49.272 24.096 48.216 24.096C46.944 24.096 45.972 24.252 45.3 24.564C44.628 24.876 44.292 25.428 44.292 26.22C44.292 26.724 44.436 27.132 44.724 27.444C45.012 27.756 45.468 28.032 46.092 28.272C46.74 28.488 47.76 28.776 49.152 29.136C51.336 29.736 52.848 30.444 53.688 31.26C54.552 32.076 54.984 33.204 54.984 34.644C54.984 36.132 54.372 37.32 53.148 38.208C51.924 39.096 50.112 39.54 47.712 39.54ZM64.6179 39.54C62.5299 39.54 60.8499 39.012 59.5779 37.956C58.3299 36.876 57.7059 35.424 57.7059 33.6C57.7059 31.68 58.3059 30.204 59.5059 29.172C60.7299 28.116 62.4579 27.588 64.6899 27.588C67.0659 27.588 69.0819 28.068 70.7379 29.028V28.128C70.7379 26.76 70.3179 25.752 69.4779 25.104C68.6619 24.432 67.3659 24.096 65.5899 24.096C64.5339 24.096 63.5019 24.204 62.4939 24.42C61.5099 24.612 60.6219 24.888 59.8299 25.248V22.296C60.5499 21.96 61.4859 21.696 62.6379 21.504C63.7899 21.288 64.9059 21.18 65.9859 21.18C68.8419 21.18 70.9539 21.816 72.3219 23.088C73.7139 24.336 74.4099 26.076 74.4099 28.308V39H70.9899V37.056C70.2459 37.872 69.3579 38.496 68.3259 38.928C67.3179 39.336 66.0819 39.54 64.6179 39.54ZM65.5179 36.768C66.6699 36.768 67.7139 36.54 68.6499 36.084C69.5859 35.628 70.2819 34.992 70.7379 34.176V31.836C69.1779 30.828 67.4379 30.324 65.5179 30.324C64.1259 30.324 63.0819 30.6 62.3859 31.152C61.7139 31.68 61.3779 32.496 61.3779 33.6C61.3779 35.712 62.7579 36.768 65.5179 36.768ZM78.922 21.72H82.45V24.204C83.266 23.172 84.262 22.416 85.438 21.936C86.638 21.432 87.886 21.18 89.182 21.18C91.486 21.18 93.202 21.792 94.33 23.016C95.458 24.24 96.022 25.884 96.022 27.948V39H92.386V28.308C92.386 25.5 91.042 24.096 88.354 24.096C87.202 24.096 86.122 24.372 85.114 24.924C84.13 25.452 83.278 26.268 82.558 27.372V39H78.922V21.72ZM108.86 39.54C107.132 39.54 105.572 39.168 104.18 38.424C102.812 37.656 101.732 36.588 100.94 35.22C100.172 33.828 99.788 32.22 99.788 30.396C99.788 28.596 100.172 27 100.94 25.608C101.732 24.216 102.812 23.136 104.18 22.368C105.572 21.576 107.132 21.18 108.86 21.18C111.98 21.18 114.344 22.128 115.952 24.024V12.396H119.588V39H116.06V36.48C115.1 37.536 114.044 38.316 112.892 38.82C111.764 39.3 110.42 39.54 108.86 39.54ZM109.688 36.66C111.176 36.66 112.472 36.276 113.576 35.508C114.704 34.716 115.496 33.66 115.952 32.34V28.452C115.544 27.132 114.764 26.076 113.612 25.284C112.484 24.492 111.176 24.096 109.688 24.096C108.512 24.096 107.444 24.36 106.484 24.888C105.548 25.416 104.804 26.16 104.252 27.12C103.724 28.08 103.46 29.172 103.46 30.396C103.46 31.62 103.724 32.712 104.252 33.672C104.804 34.632 105.548 35.376 106.484 35.904C107.444 36.408 108.512 36.66 109.688 36.66ZM135.002 39.54C133.442 39.54 132.086 39.3 130.934 38.82C129.806 38.316 128.762 37.536 127.802 36.48V39H124.274V12.396H127.91V24.024C128.702 23.088 129.722 22.38 130.97 21.9C132.218 21.42 133.562 21.18 135.002 21.18C136.73 21.18 138.278 21.576 139.646 22.368C141.038 23.136 142.118 24.216 142.886 25.608C143.678 27 144.074 28.596 144.074 30.396C144.074 32.22 143.678 33.828 142.886 35.22C142.118 36.588 141.038 37.656 139.646 38.424C138.278 39.168 136.73 39.54 135.002 39.54ZM134.174 36.66C135.35 36.66 136.406 36.408 137.342 35.904C138.302 35.376 139.046 34.632 139.574 33.672C140.126 32.712 140.402 31.62 140.402 30.396C140.402 29.172 140.126 28.08 139.574 27.12C139.046 26.16 138.302 25.416 137.342 24.888C136.406 24.36 135.35 24.096 134.174 24.096C132.71 24.096 131.402 24.492 130.25 25.284C129.098 26.076 128.318 27.132 127.91 28.452V32.34C128.366 33.66 129.146 34.716 130.25 35.508C131.378 36.276 132.686 36.66 134.174 36.66ZM156.233 39.54C154.289 39.54 152.573 39.18 151.085 38.46C149.621 37.716 148.469 36.66 147.629 35.292C146.813 33.9 146.405 32.268 146.405 30.396C146.405 28.548 146.813 26.928 147.629 25.536C148.445 24.144 149.597 23.076 151.085 22.332C152.573 21.564 154.289 21.18 156.233 21.18C158.177 21.18 159.893 21.564 161.381 22.332C162.869 23.076 164.021 24.144 164.837 25.536C165.677 26.928 166.097 28.548 166.097 30.396C166.097 32.268 165.677 33.9 164.837 35.292C164.021 36.66 162.869 37.716 161.381 38.46C159.893 39.18 158.177 39.54 156.233 39.54ZM156.233 36.66C158.105 36.66 159.593 36.084 160.697 34.932C161.801 33.78 162.353 32.268 162.353 30.396C162.353 28.452 161.801 26.916 160.697 25.788C159.593 24.66 158.105 24.096 156.233 24.096C154.361 24.096 152.873 24.66 151.769 25.788C150.665 26.916 150.113 28.452 150.113 30.396C150.113 32.268 150.665 33.78 151.769 34.932C152.873 36.084 154.361 36.66 156.233 36.66ZM174.388 29.964L167.62 21.72H171.76L176.44 27.444L181.156 21.72H185.296L178.528 29.964L185.944 39H181.84L176.44 32.484L171.076 39H166.972L174.388 29.964Z" fill="black"/>
</svg>
